<svg width="1000" height="1000" viewBox="0 0 1000 1000" fill="none" xmlns="http://www.w3.org/2000/svg">
<path d="M597.794 296.961L571.455 297.007C569.641 279.608 565.458 262.907 559.234 247.216L581.504 234.301C587.59 230.772 589.671 222.811 586.163 216.502L576.804 199.673C573.275 193.325 565.436 190.994 559.286 194.485L537.293 206.967C527.058 192.623 514.841 179.691 501.004 168.567L513.654 146.838C517.284 140.603 515.13 132.398 508.833 128.491L491.998 118.045C485.633 114.097 477.467 115.963 473.77 122.235L461.092 143.742C444.801 136.154 427.198 130.68 408.631 127.744V102.239C408.631 94.7149 402.441 88.333 394.782 87.9836L374.284 87.0483C366.527 86.6943 360.219 92.5726 360.219 100.179V125.964C341.079 127.559 322.629 131.861 305.284 138.519L291.601 115.208C287.58 108.358 278.649 105.702 271.64 109.297L252.895 118.911C245.807 122.546 243.373 131.102 247.473 137.998L261.65 161.847C246.133 172.817 232.261 185.95 220.511 200.841L194.868 186.332C187.598 182.219 178.268 184.352 174.043 191.118L162.77 209.174C158.516 215.986 161.041 224.826 168.395 228.896L194.93 243.58C187.573 260.524 182.603 278.688 180.44 297.679L148.611 297.734C140.045 297.748 133.078 304.241 133.078 312.236V333.496C133.078 341.49 140.045 347.884 148.611 347.778L181.285 347.371C184.044 365.918 189.493 383.575 197.235 399.968L168.395 416.335C161.041 420.509 158.516 429.385 162.77 436.137L174.043 454.033C178.268 460.74 187.598 462.741 194.868 458.524L224.038 441.608C235.692 455.393 249.248 467.505 264.29 477.586L247.472 506.114C243.372 513.068 245.806 521.589 252.895 525.125L271.64 534.473C278.649 537.968 287.58 535.186 291.6 528.279L308.279 499.628C324.748 505.437 342.177 509.124 360.219 510.396V542.335C360.219 549.942 366.527 555.731 374.284 555.267L394.782 554.042C402.441 553.584 408.63 547.114 408.63 539.59V507.998C426.14 505.005 442.793 499.767 458.296 492.642L473.77 518.672C477.467 524.892 485.633 526.642 491.998 522.603L508.833 511.919C515.13 507.923 517.283 499.688 513.653 493.504L498.632 467.912C512.078 457.272 524.048 444.961 534.232 431.346L559.286 445.21C565.436 448.614 573.275 446.172 576.804 439.774L586.163 422.812C589.671 416.454 587.59 408.523 581.503 405.079L557.276 391.372C563.837 375.979 568.429 359.593 570.746 342.525L597.794 342.189C604.766 342.102 610.401 336.212 610.401 329.032V309.939C610.402 302.76 604.767 296.949 597.794 296.961ZM384.557 454.137C306.62 457.029 241.398 396.541 241.398 318.94C241.398 241.339 306.62 180.017 384.557 181.913C459.846 183.745 519.028 244.274 519.028 317.166C519.028 390.057 459.846 451.343 384.557 454.137Z" fill="#97A6B7"/>
<path d="M297.348 108.297L278.589 107.651L272.12 124.47L297.348 108.297Z" fill="#97A6B7"/>
<path d="M483.366 116.06L504.997 116.276V132.232L483.366 116.06Z" fill="#97A6B7"/>
<path d="M565.804 193.031L587.367 193.902L581.976 205.977L565.804 193.031Z" fill="#97A6B7"/>
<path d="M599.658 297.187L621.436 298.912L614.32 309.478L599.658 297.187Z" fill="#97A6B7"/>
<path d="M563.433 446.617L584.564 449.636L587.152 432.386L563.433 446.617Z" fill="#97A6B7"/>
<path d="M482.572 524.458L501.547 527.908L503.057 513.893L482.572 524.458Z" fill="#97A6B7"/>
<path d="M387.696 558.096L370.662 555.077L385.324 533.299L387.696 558.096Z" fill="#97A6B7"/>
<path d="M295.408 539.768L275.57 535.671L290.88 517.127L295.408 539.768Z" fill="#97A6B7"/>
<path d="M183.928 184.414L204.629 185.061L196.435 200.155L183.928 184.414Z" fill="#97A6B7"/>
<path d="M142.743 346.781L161.719 349.585L160.209 334.059L142.743 346.781Z" fill="#97A6B7"/>
<path d="M183.497 460.417L202.041 463.436L203.55 451.145L183.497 460.417Z" fill="#97A6B7"/>
<path d="M619.074 298.672L592.517 298.717C590.687 281.177 586.47 264.34 580.194 248.521L602.649 235.501C608.786 231.943 610.884 223.917 607.347 217.557L597.911 200.591C594.352 194.192 586.448 191.841 580.247 195.361L558.072 207.944C547.751 193.484 535.434 180.446 521.482 169.232L534.237 147.325C537.896 141.04 535.726 132.768 529.377 128.829L512.401 118.299C505.984 114.318 497.75 116.199 494.022 122.522L481.239 144.204C464.814 136.554 447.064 131.036 428.343 128.075V102.363C428.343 94.7779 422.102 88.3444 414.38 87.9921L393.712 87.0492C385.89 86.6924 379.53 92.6189 379.53 100.287V126.282C360.231 127.89 341.628 132.227 324.139 138.939L310.343 115.438C306.289 108.533 297.284 105.855 290.217 109.479L271.316 119.171C264.169 122.836 261.715 131.461 265.849 138.414L280.144 162.457C264.498 173.517 250.511 186.756 238.665 201.769L212.809 187.142C205.478 182.995 196.071 185.145 191.811 191.967L180.444 210.17C176.156 217.037 178.702 225.949 186.117 230.052L212.871 244.856C205.453 261.938 200.442 280.25 198.261 299.396L166.169 299.451C157.531 299.466 150.506 306.012 150.506 314.071V335.505C150.506 343.564 157.531 350.01 166.169 349.903L199.114 349.493C201.895 368.191 207.389 385.992 215.195 402.518L186.117 419.019C178.702 423.227 176.156 432.175 180.444 438.982L191.811 457.024C196.071 463.786 205.478 465.802 212.809 461.552L242.22 444.497C253.971 458.395 267.639 470.605 282.805 480.769L265.849 509.528C261.715 516.54 264.169 525.13 271.316 528.694L290.217 538.119C297.284 541.642 306.289 538.837 310.343 531.874L327.16 502.99C343.766 508.847 361.339 512.563 379.53 513.846V546.046C379.53 553.714 385.89 559.55 393.712 559.083L414.38 557.847C422.102 557.385 428.343 550.863 428.343 543.278V511.429C445.998 508.412 462.789 503.13 478.42 495.947L494.022 522.19C497.75 528.46 505.984 530.225 512.401 526.153L529.377 515.382C535.726 511.353 537.896 503.05 534.237 496.816L519.09 471.017C532.648 460.289 544.718 447.878 554.986 434.152L580.247 448.13C586.448 451.561 594.352 449.099 597.911 442.65L607.347 425.55C610.884 419.139 608.786 411.144 602.649 407.672L578.22 393.853C584.836 378.335 589.466 361.816 591.802 344.608L619.074 344.269C626.104 344.181 631.786 338.243 631.786 331.006V311.757C631.786 304.517 626.105 298.66 619.074 298.672ZM404.07 457.127C325.487 460.043 259.724 399.063 259.724 320.829C259.724 242.596 325.487 180.775 404.07 182.686C479.983 184.533 539.655 245.555 539.655 319.041C539.655 392.526 479.983 454.311 404.07 457.127Z" fill="#D8DEE8"/>
<path d="M866.41 298.844L852.24 296.209C853.021 286.669 852.457 277.265 850.695 268.198L863.975 263.501C867.605 262.218 869.528 258.146 868.278 254.399L864.944 244.404C863.687 240.634 859.707 238.589 856.047 239.845L842.959 244.337C838.902 235.59 833.639 227.401 827.32 220.022L836.317 209.613C838.898 206.627 838.569 201.997 835.577 199.26L827.577 191.942C824.553 189.176 819.973 189.355 817.351 192.355L808.362 202.641C800.367 196.916 791.452 192.194 781.763 188.741L784.338 175.024C785.098 170.978 782.414 166.921 778.33 165.96L767.401 163.387C763.265 162.414 759.279 164.938 758.511 169.029L755.908 182.896C745.453 181.821 735.097 182.272 725.096 184.101L720.091 170.183C718.62 166.093 714.086 163.763 709.954 164.989L698.902 168.267C694.723 169.506 692.55 173.861 694.059 177.984L699.275 192.241C689.823 196.574 681.037 202.236 673.215 209.058L660.889 198.667C657.394 195.721 652.161 195.926 649.206 199.138L641.32 207.71C638.345 210.944 638.81 215.953 642.354 218.884L655.142 229.46C649.474 237.83 644.968 247.096 641.887 257.092L624.764 253.907C620.156 253.051 615.753 255.839 614.946 260.138L612.8 271.572C611.993 275.871 615.094 280.013 619.712 280.821L637.325 283.901C636.936 294.154 638.083 304.2 640.592 313.797L623.43 319.688C619.053 321.191 616.799 325.709 618.405 329.769L622.661 340.532C624.256 344.565 629.071 346.583 633.407 345.05L650.802 338.898C655.678 347.488 661.745 355.37 668.817 362.311L656.893 375.955C653.986 379.281 654.434 384.109 657.889 386.726L667.027 393.646C670.443 396.234 675.527 395.639 678.387 392.331L690.249 378.607C698.519 383.393 707.521 387.136 717.095 389.642L713.87 406.818C713.102 410.909 715.91 414.659 720.129 415.193L731.277 416.603C735.442 417.13 739.423 414.276 740.183 410.23L743.373 393.24C753.092 393.398 762.577 392.262 771.633 389.995L777.327 405.557C778.687 409.275 782.902 411.041 786.733 409.511L796.865 405.465C800.655 403.952 802.645 399.74 801.317 396.048L795.822 380.769C804.128 376.404 811.809 370.992 818.66 364.698L830.734 374.684C833.698 377.135 838.16 376.613 840.704 373.529L847.449 365.352C849.978 362.287 849.66 357.811 846.734 355.345L835.088 345.527C840.171 337.911 844.295 329.562 847.265 320.617L861.845 323.167C865.603 323.824 869.228 321.225 869.953 317.364L871.881 307.096C872.604 303.235 870.16 299.541 866.41 298.844ZM735.862 361.843C693.656 355.529 664.687 316.414 672.522 274.68C680.357 232.947 721.624 206.554 763.348 215.442C803.653 224.029 829.369 262.557 822.01 301.757C814.65 340.958 776.635 367.942 735.862 361.843Z" fill="#97A6B7"/>
<path d="M723.879 167.047L713.856 164.805L708.679 173.197L723.879 167.047Z" fill="#97A6B7"/>
<path d="M823.135 190.003L834.747 192.303L833.136 200.884L823.135 190.003Z" fill="#97A6B7"/>
<path d="M859.699 239.721L871.207 242.366L867.089 248.316L859.699 239.721Z" fill="#97A6B7"/>
<path d="M867.389 299.153L878.927 302.28L874.034 307.244L867.389 299.153Z" fill="#97A6B7"/>
<path d="M832.82 375.859L843.88 379.616L847.013 370.6L832.82 375.859Z" fill="#97A6B7"/>
<path d="M781.475 409.557L791.331 413.329L793.558 405.943L781.475 409.557Z" fill="#97A6B7"/>
<path d="M727.054 418.069L718.198 414.725L728.283 404.493L727.054 418.069Z" fill="#97A6B7"/>
<path d="M679.273 398.894L669.018 394.688L679.123 386.26L679.273 398.894Z" fill="#97A6B7"/>
<path d="M655.198 196.531L666.265 198.969L660.334 206.259L655.198 196.531Z" fill="#97A6B7"/>
<path d="M616.655 279.693L626.577 283.116L627.333 274.615L616.655 279.693Z" fill="#97A6B7"/>
<path d="M627.099 344.92L636.767 348.416L638.82 341.959L627.099 344.92Z" fill="#97A6B7"/>
<path d="M877.681 301.912L863.394 299.255C864.181 289.637 863.613 280.157 861.835 271.016L875.226 266.281C878.885 264.987 880.824 260.883 879.564 257.105L876.202 247.028C874.934 243.227 870.921 241.165 867.231 242.432L854.035 246.96C849.944 238.141 844.637 229.886 838.266 222.446L847.337 211.953C849.94 208.942 849.607 204.275 846.59 201.515L838.524 194.138C835.475 191.349 830.857 191.53 828.214 194.554L819.15 204.924C811.089 199.151 802.1 194.391 792.331 190.909L794.927 177.082C795.693 173.002 792.987 168.912 788.869 167.943L777.849 165.349C773.678 164.368 769.66 166.913 768.885 171.037L766.261 185.017C755.72 183.933 745.277 184.387 735.194 186.231L730.147 172.2C728.664 168.077 724.092 165.727 719.925 166.963L708.782 170.267C704.568 171.516 702.378 175.907 703.899 180.064L709.159 194.437C699.628 198.805 690.769 204.513 682.883 211.39L670.454 200.914C666.93 197.943 661.654 198.15 658.675 201.389L650.724 210.03C647.724 213.291 648.194 218.341 651.767 221.296L664.661 231.958C658.947 240.396 654.403 249.738 651.297 259.814L634.033 256.604C629.386 255.74 624.947 258.551 624.134 262.885L621.969 274.412C621.155 278.746 624.283 282.922 628.939 283.737L646.698 286.842C646.306 297.179 647.463 307.307 649.993 316.982L632.688 322.921C628.276 324.435 626.003 328.99 627.622 333.084L631.914 343.935C633.522 348.001 638.378 350.035 642.749 348.489L660.288 342.287C665.205 350.948 671.323 358.894 678.453 365.891L666.43 379.646C663.499 383 663.952 387.867 667.436 390.506L676.649 397.482C680.093 400.091 685.219 399.492 688.103 396.156L700.063 382.32C708.402 387.146 717.478 390.92 727.131 393.446L723.88 410.763C723.106 414.887 725.938 418.668 730.191 419.206L741.431 420.628C745.631 421.159 749.645 418.282 750.411 414.203L753.627 397.074C763.426 397.234 772.99 396.089 782.121 393.804L787.863 409.493C789.234 413.241 793.484 415.022 797.347 413.48L807.564 409.401C811.385 407.875 813.39 403.629 812.052 399.908L806.511 384.503C814.885 380.103 822.63 374.647 829.537 368.302L841.712 378.369C844.7 380.841 849.199 380.315 851.764 377.206L858.565 368.962C861.115 365.872 860.794 361.36 857.844 358.873L846.102 348.975C851.226 341.297 855.384 332.881 858.378 323.863L873.079 326.434C876.869 327.097 880.524 324.477 881.255 320.585L883.198 310.233C883.927 306.34 881.463 302.615 877.681 301.912ZM746.054 365.421C703.498 359.055 674.288 319.62 682.187 277.547C690.086 235.473 731.694 208.866 773.763 217.828C814.402 226.486 840.333 265.328 832.913 304.848C825.494 344.368 787.164 371.571 746.054 365.421Z" fill="#D8DEE8"/>
<path d="M120.967 811.499C104.824 812.442 91.6284 801.157 91.6284 786.34V252.274C91.6284 237.456 104.824 225.88 120.967 226.466L882.953 254.116C895.299 254.564 905.301 265.402 905.301 278.277V742.324C905.301 755.199 895.299 766.258 882.953 766.98L120.967 811.499Z" fill="url(#paint0_linear_1_3)"/>
<path d="M617.751 870.611C605.572 866.373 596.469 855.528 593.902 842.198L576.176 750.151L424.539 755.8L405.877 851.694C403.264 865.123 413.726 878.597 425.775 883.543L489.217 909.586C501.016 914.43 513.7 916.359 526.307 915.228L660.381 903.194C664.3 902.842 667.444 899.61 667.9 895.463C668.357 891.316 671.103 886.66 667.365 885.359L617.751 870.611Z" fill="url(#paint1_linear_1_3)"/>
<path d="M619.252 865.013C607.085 860.828 597.991 850.119 595.426 836.957L577.718 746.067L429.777 751.651L411.134 846.339C408.523 859.6 415.432 872.898 427.469 877.782L490.847 903.498C502.635 908.281 515.305 910.186 527.899 909.069L661.839 897.186C665.754 896.839 668.895 893.647 669.351 889.552C669.806 885.457 667.451 881.592 663.717 880.308L619.252 865.013Z" fill="url(#paint2_linear_1_3)"/>
<path d="M127 811.499C110.857 812.442 97.6612 801.157 97.6612 786.34V252.274C97.6612 237.456 110.857 225.88 127 226.466L888.986 254.116C901.332 254.564 911.334 265.402 911.334 278.277V742.324C911.334 755.199 901.332 766.258 888.986 766.98L127 811.499Z" fill="url(#paint3_linear_1_3)"/>
<path d="M888.986 265.03L127 238.916C118.369 238.62 111.353 244.796 111.353 252.711V668.225V785.598C111.353 793.514 118.368 799.535 127 799.048L888.986 756.064C895.602 755.691 900.953 749.791 900.953 742.885V636.834V277.945C900.954 271.039 895.602 265.257 888.986 265.03Z" fill="url(#paint4_linear_1_3)"/>
<path d="M127 753.642C123.639 753.807 120.902 751.435 120.902 748.356V253.017C120.902 249.937 123.639 247.521 127 247.632L888.986 272.671C891.566 272.756 893.664 275.018 893.664 277.712V711.144C893.664 713.838 891.566 716.134 888.986 716.261L127 753.642Z" fill="white"/>
<path d="M863.036 689.552L160.425 720.408V321.661L863.036 336.409V689.552Z" fill="url(#paint5_linear_1_3)"/>
<path d="M863.036 324.345L160.425 308.04V273.985L863.036 294.185V324.345Z" fill="url(#paint6_linear_1_3)"/>
<path d="M809.672 307.879C809.672 310.032 807.976 311.735 805.883 311.682C803.788 311.63 802.089 309.838 802.089 307.682C802.089 305.525 803.788 303.822 805.883 303.878C807.977 303.934 809.672 305.725 809.672 307.879Z" fill="white"/>
<path d="M825.222 308.283C825.222 310.43 823.536 312.129 821.454 312.076C819.371 312.023 817.682 310.237 817.682 308.087C817.682 305.936 819.371 304.238 821.454 304.294C823.536 304.35 825.222 306.136 825.222 308.283Z" fill="white"/>
<path d="M840.684 308.685C840.684 310.826 839.008 312.52 836.938 312.467C834.867 312.415 833.187 310.634 833.187 308.49C833.187 306.345 834.867 304.652 836.938 304.707C839.008 304.763 840.684 306.543 840.684 308.685Z" fill="white"/>
<g opacity="0.68">
<path d="M720.833 625.913L175.749 643.027V332.02L720.833 342.568V625.913Z" fill="white"/>
</g>
<path opacity="0.68" d="M855.531 424.939L730.365 424.35V342.753L855.531 345.175V424.939Z" fill="white"/>
<path d="M855.531 439.551L730.365 439.297V433.188L855.531 433.579V439.551Z" fill="white"/>
<path d="M808.959 449.862L730.365 449.851V443.741L808.959 443.838V449.862Z" fill="white"/>
<path opacity="0.68" d="M855.531 541.952L730.365 544.05V462.453L855.531 462.187V541.952Z" fill="white"/>
<path d="M855.531 556.564L730.365 558.998V552.888L855.531 550.591V556.564Z" fill="white"/>
<path d="M808.959 567.874L730.365 569.551V563.441L808.959 561.85V567.874Z" fill="white"/>
<path opacity="0.68" d="M855.531 658.964L730.365 663.751V582.153L855.531 579.199V658.964Z" fill="white"/>
<path d="M855.531 673.576L730.365 678.698V672.588L855.531 667.603V673.576Z" fill="white"/>
<path d="M808.959 685.887L730.365 689.251V683.142L808.959 679.863V685.887Z" fill="white"/>
<path d="M552.963 664.066L175.749 678.067V657.621L552.963 644.879V664.066Z" fill="white"/>
<path d="M720.833 657.835L667.014 659.833V641.026L720.833 639.209V657.835Z" fill="white"/>
<path d="M658.7 660.141L603.671 662.184V643.166L658.7 641.307V660.141Z" fill="white"/>
<path d="M348.325 695.674L175.749 702.776V692.553L348.325 685.739V695.674Z" fill="white"/>
<path d="M720.714 585.352C712.142 576.201 735.872 541.819 748.572 526.754C759.668 513.592 771.072 500.064 785.077 501.777C797.372 503.281 809.336 516.247 810.053 528.675C811.982 562.106 732.9 598.363 720.714 585.352Z" fill="url(#paint7_linear_1_3)"/>
<path d="M823.632 938.655C825.245 939.967 825.542 943.242 825.736 945.383C825.823 946.339 825.866 946.818 825.759 947.155C824.98 949.619 820.201 949.879 812.707 950.644C800.865 951.854 797.341 952.786 796.414 951.024C795.546 949.373 797.648 946.668 797.884 946.37C799.157 944.768 800.718 944.184 803.738 943.191C809.324 941.352 813.1 940.345 814.242 940.04C821.38 938.135 822.572 937.794 823.632 938.655Z" fill="url(#paint8_linear_1_3)"/>
<path d="M816.589 927.837L815.404 941.331C815.741 941.983 819.752 943.937 822.938 942.261L825.983 928.996L816.589 927.837Z" fill="#D8DEE8"/>
<path d="M729.716 936.921C731.65 939.056 732.091 942.989 730.409 944.926C728.756 946.831 726.271 945.402 719.222 945.613C711.671 945.839 709.699 947.622 704.568 946.206C702.495 945.633 698.834 944.243 698.904 942.763C698.952 941.722 700.816 941.185 707.042 939.099C715.878 936.139 715.84 935.977 717.716 935.666C722.43 934.885 727.162 934.101 729.716 936.921Z" fill="url(#paint9_linear_1_3)"/>
<path d="M724.879 924.605L721.091 937.203C721.377 937.879 725.228 940.133 728.532 938.705L734.156 926.478L724.879 924.605Z" fill="#D8DEE8"/>
<path d="M758.528 648.696C757.986 691.034 755.097 738.638 748.165 790.357C741.313 841.473 731.712 887.659 721.238 928.273C726.07 929.573 730.902 930.873 735.734 932.173C747.993 920.742 763.457 902.748 770.92 877.32C775.551 861.538 774.007 853.428 776.945 834.016C781.623 803.108 791.097 786.915 800.89 761.99C809.69 739.593 820.091 706.724 825.668 662.787C803.288 658.09 780.908 653.393 758.528 648.696Z" fill="url(#paint10_linear_1_3)"/>
<path d="M802.145 644.656C805.103 698.503 807.535 753.352 809.378 809.172C810.762 851.06 811.777 892.417 812.452 933.229C817.388 933.838 822.324 934.448 827.26 935.057C832.029 926.177 838.364 912.601 842.703 895.201C847.974 874.068 846.753 861.518 849.065 839.616C851.658 815.05 855.425 809.698 862.098 778.709C875.642 715.818 882.414 684.372 867.306 664.811C862.402 658.461 847.027 642.531 802.145 644.656Z" fill="url(#paint11_linear_1_3)"/>
<path d="M874.08 509.324C862.521 506.074 845.581 502.272 824.834 501.1C795.243 499.427 780.447 498.591 769.963 505.638C745.748 521.913 764.495 559.476 754.583 652.593C753.167 665.891 752.85 679.283 751.825 692.616C750.127 714.693 749.741 715.891 751.277 718.128C760.909 732.157 796.847 710.997 849.522 719.361C878.995 724.041 892.362 734.823 900.436 727.047C909.853 717.978 901.775 693.586 894.822 672.587C886.841 648.485 881.911 648.174 877.381 630.022C872.646 611.049 875.51 601.28 876.247 571.361C876.6 557.045 876.525 535.74 874.08 509.324Z" fill="url(#paint12_linear_1_3)"/>
<g opacity="0.3">
<path d="M802.451 684.138C816.218 683.061 825.15 690.844 837.034 684.778C853.33 676.46 858.566 650.58 857.528 632.263C855.95 604.433 840.058 597.097 842.798 579.108C844.279 569.38 851.225 556.463 876.163 543.268C876.496 554.374 876.433 563.84 876.247 571.361C875.51 601.28 872.646 611.049 877.381 630.022C881.911 648.174 886.842 648.484 894.823 672.587C901.776 693.585 909.853 717.978 900.436 727.046C892.362 734.823 878.995 724.041 849.523 719.361C804.135 712.154 771.192 726.848 756.778 722.083C774.195 693.301 789.993 685.113 802.451 684.138Z" fill="url(#paint13_linear_1_3)"/>
</g>
<path d="M855.301 511.235C865.134 503.156 884.905 512.301 890.189 514.746C919.661 528.378 946.123 565.114 939.567 603.936C938.583 609.759 934.024 636.992 910.963 650.188C890.156 662.094 862.059 659.032 839.548 642.169C836.472 639.439 833.395 636.71 830.318 633.98C827.292 630.708 824.264 627.437 821.238 624.165C825.996 620.207 834.079 614.498 845.433 610.835C860.401 606.005 871.298 614.671 878.243 608.083C883.036 603.535 883.047 595.504 881.863 590.636C879.478 580.825 870.83 578.066 863.611 571.103C846.653 554.743 843.528 520.908 855.301 511.235Z" fill="url(#paint14_linear_1_3)"/>
<path d="M713.997 637.973L845.791 636.005L810.745 652.919L713.66 646.565L713.997 637.973Z" fill="url(#paint15_linear_1_3)"/>
<path d="M850.442 639.508C850.442 641.974 848.899 644.178 846.581 645.021L804.468 661.53L804.276 650.084L845.791 636.005C848.121 635.336 850.442 637.084 850.442 639.508Z" fill="url(#paint16_linear_1_3)"/>
<path d="M830.149 631.71C830.957 631.529 826.208 622.066 822.479 623.158C818.752 624.25 800.516 634.818 798.858 639.17C797.201 643.521 797.201 643.521 797.201 643.521C797.201 643.521 805.155 644.143 810.088 642.486C815.022 640.828 823.571 633.176 830.149 631.71Z" fill="white"/>
<path d="M800.78 569.777L810.07 654.362C810.391 657.281 806.305 661.629 803.372 661.49L667.09 653.124C664.85 653.017 662.986 651.369 662.606 649.16L645.501 567.465C644.991 564.492 650.335 561.422 653.35 561.506L796.165 565.522C798.551 565.59 800.52 567.405 800.78 569.777Z" fill="url(#paint17_linear_1_3)"/>
<path d="M797.666 572.243L806.956 656.829C807.276 659.748 804.913 662.262 801.981 662.123L663.975 655.59C661.736 655.484 659.871 653.836 659.492 651.626L645.393 569.558C644.882 566.585 647.22 563.888 650.236 563.973L793.051 567.989C795.436 568.055 797.406 569.872 797.666 572.243Z" fill="url(#paint18_linear_1_3)"/>
<path opacity="0.3" d="M716.629 635.77C728.679 630.662 724.426 620.923 738.656 608.787C757.428 592.777 776.562 599.72 783.26 587.31C785.346 583.445 786.342 577.432 782.709 567.698L793.051 567.988C795.436 568.055 797.406 569.871 797.666 572.243L806.956 656.828C807.276 659.747 804.913 662.261 801.981 662.123L663.975 655.589C661.736 655.483 659.871 653.835 659.492 651.626L657.546 640.301C661.733 637.971 666.737 635.852 672.575 634.668C692.822 630.562 702.755 641.649 716.629 635.77Z" fill="url(#paint19_linear_1_3)"/>
<path d="M655.281 643.759C655.056 643.078 655.532 642.376 656.249 642.34C659.165 642.191 665.93 642.13 669.665 644.417C674.516 647.389 680.789 652.811 675.506 655.547L670.573 658.103C670.347 658.22 670.1 658.257 669.852 658.202C668.099 657.817 660.722 656.18 659.915 655.774C659.18 655.404 656.368 647.057 655.281 643.759Z" fill="#D8DEE8"/>
<path d="M822.624 468.77C822.551 477.543 823.529 484.5 824.455 489.265C825.516 494.724 826.28 496.134 827.256 497.278C828.724 499.001 830.949 500.446 843.519 503.563C850.36 505.259 851.24 505.213 851.391 505.892C852.128 509.203 833.475 520.49 814.203 517.77C802.409 516.105 791.677 509.376 792.336 505.842C792.999 502.286 804.781 504.194 808.292 497.761C810.734 493.285 807.996 486.932 804.76 481.67C807.895 475.796 819.49 474.644 822.624 468.77Z" fill="white"/>
<path d="M800.733 472.239C797.95 468.541 797.778 462.086 800.986 458.006C803.745 454.495 808.089 453.994 810.689 453.693C818.224 452.823 827.731 455.968 831.038 462.904C832.998 467.013 828.759 475.553 828.095 477.088C827.344 478.823 825.981 479.419 824.72 480.732C822.973 482.552 820.238 485.446 815.774 490.287C815.427 488.858 814.899 487.09 814.061 485.174C813.739 484.436 812.443 481.555 810.483 479.166C806.556 474.377 803.372 475.743 800.733 472.239Z" fill="url(#paint20_linear_1_3)"/>
<path d="M822.142 486.216C822.142 486.216 817.188 494.343 807.326 493.701C798.496 493.126 797.202 473.324 802.842 469.122C804.724 467.72 808.493 467.138 811.557 467.996C813.366 468.504 813.979 469.255 816.953 470.026C819.695 470.738 820.47 470.434 821.298 471.13C822.333 472.002 823.092 474.139 821.363 479.928C823.048 478.222 825.07 477.567 826.503 478.244C826.731 478.352 827.337 478.764 827.679 479.389C828.913 481.651 826.847 484.54 822.142 486.216Z" fill="white"/>
<path d="M821.697 469.946C821.271 470.264 822.573 471.853 822.67 474.101C822.859 478.466 818.441 483.706 813.933 484.15C811.269 484.413 810.536 482.806 806.131 482.341C803.404 482.053 801.134 482.4 799.705 482.712C798.321 487.5 799.623 492.272 802.823 494.487C806.268 496.871 810.669 495.425 812.509 494.82C813.739 494.415 817.683 493.127 819.745 489.51C821.893 485.741 819.785 483.469 822.249 480.92C823.492 479.634 825.124 479.077 826.713 476.588C827.145 475.911 827.433 475.313 827.609 474.911C825.331 472.496 822.314 469.486 821.697 469.946Z" fill="url(#paint21_linear_1_3)"/>
<path d="M802.911 484.487C802.911 484.487 804.818 485.483 808.113 485.297C808.274 485.288 808.451 485.335 808.471 485.418C808.547 485.731 806.432 487.133 804.484 486.585C803.101 486.196 802.025 484.887 802.211 484.553C802.29 484.413 802.603 484.432 802.911 484.487Z" fill="white"/>
<path d="M838.669 247.599L837.302 390.397C837.083 412.784 818.831 430.623 796.433 430.623H493.437C469.339 430.623 450.065 411.98 450.49 388.593L450.754 374.138L450.811 371.257L453.235 239.448C453.637 217.291 471.808 199.623 494.344 198.635C495.378 198.589 496.435 198.588 497.491 198.611L497.894 198.627L798.788 206.349C821.072 206.912 838.875 225.373 838.669 247.599Z" fill="url(#paint22_linear_1_3)"/>
<path d="M522.589 430.623H372.13C368.948 430.623 367.765 427.004 370.43 425.292L446.113 377.113L450.753 374.221L473.623 359.652L476.919 357.238L522.589 430.623Z" fill="url(#paint23_linear_1_3)"/>
<path d="M834.063 247.599L832.696 390.73C832.477 412.921 814.559 430.634 792.436 430.944C792.241 430.955 792.034 430.623 791.838 430.623H488.842C464.744 430.623 445.458 411.98 445.895 388.594L446.113 377.113L446.159 374.221L448.64 239.448C449.065 216.257 468.924 197.992 492.885 198.601L494.344 198.646L498.835 198.765L794.194 206.349C816.466 206.912 834.281 225.373 834.063 247.599Z" fill="url(#paint24_linear_1_3)"/>
<path d="M517.983 430.623H367.535C364.342 430.623 363.159 427.004 365.835 425.292L446.159 374.138L450.811 371.258L472.324 357.55L473.623 359.341L517.983 430.623Z" fill="url(#paint25_linear_1_3)"/>
<path d="M603.408 300.367V285.79L574.008 303.112L552.142 316.057V324.614L603.408 351.216V336.697L567.449 319.686L580.214 312.817L603.408 300.367Z" fill="white"/>
<path d="M644.24 274.189L623.381 337.467L614.755 363.656L629.687 363.806L637.509 340.156L659.402 273.983L644.24 274.189Z" fill="white"/>
<path d="M670.623 285.09V299.93L708.815 319.468L670.623 336.904V351.676L688.409 343.05L726.446 324.579V315.609L670.623 285.09Z" fill="white"/>
<path opacity="0.3" d="M791.382 431.276V430.623H367.535C364.342 430.623 363.159 427.004 365.835 425.292L446.159 374.138L448.64 239.406C449.065 216.215 468.925 197.971 492.885 198.58L494.344 198.635C495.378 198.589 496.435 198.588 497.491 198.611L497.893 198.628C498.215 198.674 498.525 198.722 498.835 198.768C521.336 202.363 547.456 214.023 555.52 247.632C560.896 270.019 565.582 288.547 573.91 303.112C575.874 306.569 578.056 309.809 580.514 312.818C589.864 324.35 603.073 332.597 623.381 337.468C627.745 338.525 632.455 339.42 637.509 340.155C647.111 341.557 658.023 342.395 670.452 342.659C673.358 342.717 676.344 342.752 679.423 342.752C682.467 342.752 684.846 342.855 687.648 343.05C751.064 347.449 754.927 400.183 791.382 431.276Z" fill="url(#paint26_linear_1_3)"/>
<path d="M347.371 898.817C331.709 882.268 311.326 855.689 303.546 819.36C293.343 771.713 313.783 749.156 316.352 669.669C317.976 619.409 318.603 584.318 294.418 564.092C275.465 548.241 243.544 543.418 223.258 555.86C206.391 566.206 195.593 589.701 191.714 606.698C188.552 620.551 189.82 630.821 181.317 637.713C172.627 644.756 163.983 639.962 155.944 645.084C139.642 655.469 146.465 693.484 147.568 699.628C159.836 767.971 219.219 817.101 245.38 838.22C267.011 855.681 300.678 879.237 347.371 898.817Z" fill="url(#paint27_linear_1_3)"/>
<mask id="mask0_1_3" style="mask-type:luminance" maskUnits="userSpaceOnUse" x="145" y="548" width="203" height="351">
<path d="M347.371 898.817C331.709 882.268 311.326 855.689 303.546 819.36C293.343 771.713 313.783 749.156 316.352 669.669C317.976 619.409 318.603 584.318 294.418 564.092C275.465 548.241 243.544 543.418 223.258 555.86C206.391 566.206 195.593 589.701 191.714 606.698C188.552 620.551 189.82 630.821 181.317 637.713C172.627 644.756 163.983 639.962 155.944 645.084C139.642 655.469 146.465 693.484 147.568 699.628C159.836 767.971 219.219 817.101 245.38 838.22C267.011 855.681 300.678 879.237 347.371 898.817Z" fill="white"/>
</mask>
<g mask="url(#mask0_1_3)">
<g opacity="0.5">
<path d="M365.542 912.49L366.195 911.035C316.705 888.787 255.43 849.786 244.565 790.336C240.568 768.474 243.768 746.25 248.195 715.491C251.729 690.935 256.449 673.849 260.613 658.775C266.059 639.062 270.36 623.491 269.376 600.465C268.379 577.1 262.093 553.56 250.696 530.497L249.267 531.204C260.565 554.066 266.795 577.391 267.783 600.533C268.756 623.308 264.484 638.772 259.075 658.35C254.898 673.471 250.164 690.608 246.615 715.264C242.334 745.01 238.952 768.505 242.995 790.623C248.165 818.909 265.275 845.318 293.849 869.115C313.145 885.185 337.266 899.778 365.542 912.49Z" fill="white"/>
<path d="M249.891 698.247L250.736 697.936C250.905 697.874 267.787 691.565 285.224 675.63C301.317 660.923 321.218 634.767 324.636 593.677L323.046 593.546C319.671 634.119 300.031 659.937 284.148 674.452C269.144 688.163 254.612 694.633 251.025 696.106C240.177 650.675 217.876 621.262 201.021 604.554C182.619 586.313 166.519 578.836 166.358 578.763L165.695 580.213C165.853 580.286 181.744 587.675 199.952 605.741C216.75 622.407 239.013 651.832 249.686 697.37L249.891 698.247Z" fill="white"/>
<path d="M242.323 764.863L242.677 764.405C242.854 764.178 260.494 741.491 282.631 722.211C304.635 703.045 353.764 698.849 354.257 698.81L354.128 697.22C353.629 697.26 303.978 701.503 281.583 721.008C261.076 738.87 244.411 759.634 241.777 762.969C191.642 744.2 144.217 621.415 143.742 620.172L142.252 620.742C142.371 621.055 154.428 652.438 172.597 685.665C197.052 730.383 220.327 756.963 241.777 764.668L242.323 764.863Z" fill="white"/>
<path d="M286.476 862.635L285.766 861.213C274.065 837.77 277.377 814.077 295.61 790.791C309.27 773.346 326.646 762.708 326.82 762.602L325.993 761.238C325.817 761.345 308.223 772.111 294.38 789.773C276.348 812.783 272.649 837.196 283.635 860.477C277.802 859.277 256.231 854.42 229.534 843.291C200.754 831.294 159.958 809.343 129.051 772.906L69.0021 702.11L67.7858 703.142L127.835 773.938C158.957 810.629 200.005 832.714 228.959 844.78C260.323 857.85 284.668 862.311 284.911 862.354L286.476 862.635Z" fill="white"/>
</g>
</g>
<path d="M297.383 912.101C261.727 916.878 215.622 917.876 169.543 903.705C157.784 900.088 85.139 877.747 89.2758 845.428C90.7332 834.044 100.487 831.036 102.701 815.849C105.325 797.853 93.3102 790.558 82.9935 769.858C76.8376 757.506 58.8222 721.358 78.8227 697.534C90.7746 683.297 115.761 674.105 135.933 676.189C165.522 679.245 178.957 705.961 200.906 751.558C220.364 791.978 218.06 802.799 232.579 831.661C243.354 853.081 262.201 882.062 297.383 912.101Z" fill="url(#paint28_linear_1_3)"/>
<mask id="mask1_1_3" style="mask-type:luminance" maskUnits="userSpaceOnUse" x="69" y="675" width="229" height="241">
<path d="M297.383 912.101C261.727 916.878 215.622 917.876 169.543 903.705C157.784 900.088 85.139 877.747 89.2758 845.428C90.7332 834.044 100.487 831.036 102.701 815.849C105.325 797.853 93.3102 790.558 82.9935 769.858C76.8376 757.506 58.8222 721.358 78.8227 697.534C90.7746 683.297 115.761 674.105 135.933 676.189C165.522 679.245 178.957 705.961 200.906 751.558C220.364 791.978 218.06 802.799 232.579 831.661C243.354 853.081 262.201 882.062 297.383 912.101Z" fill="white"/>
</mask>
<g mask="url(#mask1_1_3)">
<g opacity="0.5">
<path d="M361.776 921.908C391.501 921.908 421.642 915.754 451.678 903.526L451.077 902.048C413.336 917.413 375.436 923.126 338.438 919.026C206.044 904.36 140.873 764.414 124.053 721.872C114.509 697.735 112.229 669.955 117.274 639.303L115.701 639.044C110.607 669.984 112.918 698.049 122.57 722.458C136.413 757.47 161.634 808.134 203.177 850.658C243.146 891.574 288.596 915.109 338.263 920.612C346.065 921.476 353.906 921.908 361.776 921.908Z" fill="white"/>
<path d="M157.358 790.735L157.735 790.125C157.819 789.989 166.253 776.229 171.925 756.142C177.166 737.58 181.066 709.646 169.878 681.978L168.399 682.577C179.41 709.809 175.567 737.352 170.403 755.663C165.467 773.165 158.42 785.801 156.745 788.67C74.8897 749.078 68.4875 692.743 68.481 676.386C68.4804 675.879 68.4794 675.697 68.4606 675.562L66.8795 675.767C66.8872 675.86 66.8856 676.069 66.8856 676.386C66.8917 693.023 73.3884 750.414 156.711 790.425L157.358 790.735Z" fill="white"/>
<path d="M153.927 857.395C168.09 857.395 184.521 855.398 203.272 850.16L203.683 850.045L203.816 849.64C203.967 849.179 218.797 802.789 206.754 743.812L194.616 684.361L193.053 684.68L205.192 744.132C216.554 799.778 203.849 844.069 202.425 848.74C157.214 861.275 125.719 854.802 107.238 847.147C87.1621 838.832 77.691 827.37 77.5976 827.256L76.3593 828.261C76.7478 828.74 86.1185 840.103 106.529 848.58C117.644 853.197 133.4 857.395 153.927 857.395Z" fill="white"/>
</g>
</g>
<path d="M343.733 644.774L368.438 921.988C368.811 926.186 365.897 929.918 361.953 930.281L228.292 944.048C220.295 944.474 216.063 940.137 215.704 935.777L191.994 647.958C191.643 643.709 195.615 639.704 203.515 639.413L335.951 637.466C339.869 637.391 343.368 640.679 343.733 644.774Z" fill="url(#paint29_linear_1_3)"/>
<path d="M349.805 644.086L374.733 922.96C375.11 927.182 372.18 930.937 368.214 931.304L229.524 944.103C225.271 944.495 221.489 941.226 221.127 936.84L197.205 647.284C196.852 643.009 200.023 639.447 204.244 639.366L341.976 636.735C345.917 636.66 349.436 639.967 349.805 644.086Z" fill="url(#paint30_linear_1_3)"/>
<path d="M346.722 659.474L369.777 917.958C370.128 921.899 367.389 925.399 363.682 925.736L233.289 937.576C229.332 937.936 225.812 934.887 225.473 930.803L203.294 663.022C202.964 659.034 205.915 655.698 209.845 655.608L339.405 652.627C343.088 652.542 346.379 655.623 346.722 659.474Z" fill="white"/>
<path d="M346.722 659.474C346.379 655.623 343.088 652.542 339.404 652.627L209.845 655.608C205.915 655.699 202.963 659.034 203.294 663.022L206.468 701.347L350.147 697.876L346.722 659.474Z" fill="url(#paint31_linear_1_3)"/>
<path d="M277.546 646.443C277.671 647.897 276.628 649.101 275.214 649.132C273.8 649.162 272.552 648.007 272.427 646.552C272.302 645.096 273.347 643.893 274.761 643.864C276.174 643.835 277.421 644.99 277.546 646.443Z" fill="url(#paint32_linear_1_3)"/>
<path d="M295.467 804.016L230.638 807.218L221.688 715.594L286.877 713.931L295.467 804.016Z" fill="url(#paint33_linear_1_3)"/>
<path d="M343.546 801.642L305.462 803.523L296.928 713.675L335.219 712.698L343.546 801.642Z" fill="url(#paint34_linear_1_3)"/>
<path d="M350.257 873.327L237.85 881.049L231.803 819.138L344.63 813.216L350.257 873.327Z" fill="url(#paint35_linear_1_3)"/>
<path d="M353.76 910.747L241.615 919.584L238.905 891.851L351.239 883.816L353.76 910.747Z" fill="url(#paint36_linear_1_3)"/>
<g opacity="0.48">
<path d="M316.48 835.528C303.035 788.552 263.834 793.249 252.11 750.801C242.482 715.939 264.683 697.561 251.216 668.374C244.882 654.647 233.786 645.365 222.279 639.022L204.244 639.366C200.022 639.447 196.852 643.009 197.205 647.284L221.126 936.84C221.488 941.227 225.271 944.495 229.523 944.103L343.236 933.609C335.965 924.385 329.066 913.096 324.278 899.537C314.143 870.835 323.916 861.505 316.48 835.528Z" fill="white"/>
</g>
<defs>
<linearGradient id="paint0_linear_1_3" x1="176.647" y1="530.564" x2="311.775" y2="516.446" gradientUnits="userSpaceOnUse">
<stop offset="0.0036" stop-color="#26264F"/>
<stop offset="1" stop-color="#444B8C"/>
</linearGradient>
<linearGradient id="paint1_linear_1_3" x1="464.699" y1="943.386" x2="493.328" y2="902.376" gradientUnits="userSpaceOnUse">
<stop stop-color="#444B8C"/>
<stop offset="0.9964" stop-color="#26264F"/>
</linearGradient>
<linearGradient id="paint2_linear_1_3" x1="551.365" y1="932.873" x2="507.548" y2="695.01" gradientUnits="userSpaceOnUse">
<stop stop-color="#444B8C"/>
<stop offset="0.9964" stop-color="#26264F"/>
</linearGradient>
<linearGradient id="paint3_linear_1_3" x1="659.455" y1="276.237" x2="878.728" y2="-36.716" gradientUnits="userSpaceOnUse">
<stop stop-color="#444B8C"/>
<stop offset="0.9964" stop-color="#26264F"/>
</linearGradient>
<linearGradient id="paint4_linear_1_3" x1="564.218" y1="313.396" x2="289.936" y2="1184.55" gradientUnits="userSpaceOnUse">
<stop stop-color="#444B8C"/>
<stop offset="0.9964" stop-color="#26264F"/>
</linearGradient>
<linearGradient id="paint5_linear_1_3" x1="579.085" y1="366.722" x2="321.951" y2="896.928" gradientUnits="userSpaceOnUse">
<stop offset="0.0036" stop-color="#E38DDD"/>
<stop offset="1" stop-color="#9571F6"/>
</linearGradient>
<linearGradient id="paint6_linear_1_3" x1="511.184" y1="303.686" x2="496.011" y2="429.283" gradientUnits="userSpaceOnUse">
<stop stop-color="#FF9085"/>
<stop offset="1" stop-color="#FB6FBB"/>
</linearGradient>
<linearGradient id="paint7_linear_1_3" x1="742.706" y1="449.928" x2="841.23" y2="922.302" gradientUnits="userSpaceOnUse">
<stop stop-color="#FFC444"/>
<stop offset="0.9964" stop-color="#F36F56"/>
</linearGradient>
<linearGradient id="paint8_linear_1_3" x1="796.361" y1="944.691" x2="825.855" y2="945.544" gradientUnits="userSpaceOnUse">
<stop stop-color="#444B8C"/>
<stop offset="0.9964" stop-color="#26264F"/>
</linearGradient>
<linearGradient id="paint9_linear_1_3" x1="700.585" y1="936.569" x2="730.812" y2="944.879" gradientUnits="userSpaceOnUse">
<stop stop-color="#444B8C"/>
<stop offset="0.9964" stop-color="#26264F"/>
</linearGradient>
<linearGradient id="paint10_linear_1_3" x1="710.882" y1="885.544" x2="794.494" y2="697.062" gradientUnits="userSpaceOnUse">
<stop stop-color="#AA80F9"/>
<stop offset="0.9964" stop-color="#6165D7"/>
</linearGradient>
<linearGradient id="paint11_linear_1_3" x1="751.945" y1="894.473" x2="858.017" y2="717.65" gradientUnits="userSpaceOnUse">
<stop stop-color="#AA80F9"/>
<stop offset="0.9964" stop-color="#6165D7"/>
</linearGradient>
<linearGradient id="paint12_linear_1_3" x1="776.82" y1="442.812" x2="875.344" y2="915.186" gradientUnits="userSpaceOnUse">
<stop stop-color="#FFC444"/>
<stop offset="0.9964" stop-color="#F36F56"/>
</linearGradient>
<linearGradient id="paint13_linear_1_3" x1="861.55" y1="846.803" x2="824.158" y2="669.191" gradientUnits="userSpaceOnUse">
<stop stop-color="#FFC444"/>
<stop offset="0.9964" stop-color="#F36F56"/>
</linearGradient>
<linearGradient id="paint14_linear_1_3" x1="844.313" y1="428.735" x2="942.837" y2="901.109" gradientUnits="userSpaceOnUse">
<stop stop-color="#FFC444"/>
<stop offset="0.9964" stop-color="#F36F56"/>
</linearGradient>
<linearGradient id="paint15_linear_1_3" x1="760.316" y1="692.46" x2="776.259" y2="647.288" gradientUnits="userSpaceOnUse">
<stop stop-color="#311944"/>
<stop offset="1" stop-color="#893976"/>
</linearGradient>
<linearGradient id="paint16_linear_1_3" x1="829.964" y1="627.013" x2="824.118" y2="667.402" gradientUnits="userSpaceOnUse">
<stop stop-color="#311944"/>
<stop offset="1" stop-color="#893976"/>
</linearGradient>
<linearGradient id="paint17_linear_1_3" x1="714.133" y1="630.55" x2="745.216" y2="586.412" gradientUnits="userSpaceOnUse">
<stop stop-color="#444B8C"/>
<stop offset="0.9964" stop-color="#26264F"/>
</linearGradient>
<linearGradient id="paint18_linear_1_3" x1="773.756" y1="703.598" x2="705.732" y2="565.424" gradientUnits="userSpaceOnUse">
<stop stop-color="#311944"/>
<stop offset="1" stop-color="#893976"/>
</linearGradient>
<linearGradient id="paint19_linear_1_3" x1="806.985" y1="614.914" x2="657.546" y2="614.914" gradientUnits="userSpaceOnUse">
<stop stop-color="#311944"/>
<stop offset="1" stop-color="#893976"/>
</linearGradient>
<linearGradient id="paint20_linear_1_3" x1="833.539" y1="513.364" x2="811.435" y2="456.609" gradientUnits="userSpaceOnUse">
<stop stop-color="#311944"/>
<stop offset="1" stop-color="#6B3976"/>
</linearGradient>
<linearGradient id="paint21_linear_1_3" x1="826.712" y1="516.052" x2="804.586" y2="459.24" gradientUnits="userSpaceOnUse">
<stop stop-color="#311944"/>
<stop offset="1" stop-color="#6B3976"/>
</linearGradient>
<linearGradient id="paint22_linear_1_3" x1="784.61" y1="130.878" x2="514.035" y2="488.589" gradientUnits="userSpaceOnUse">
<stop stop-color="#311944"/>
<stop offset="1" stop-color="#893976"/>
</linearGradient>
<linearGradient id="paint23_linear_1_3" x1="712.236" y1="76.4716" x2="441.801" y2="433.996" gradientUnits="userSpaceOnUse">
<stop stop-color="#311944"/>
<stop offset="1" stop-color="#893976"/>
</linearGradient>
<linearGradient id="paint24_linear_1_3" x1="780.089" y1="130.938" x2="509.514" y2="488.648" gradientUnits="userSpaceOnUse">
<stop offset="0.0036" stop-color="#E38DDD"/>
<stop offset="1" stop-color="#9571F6"/>
</linearGradient>
<linearGradient id="paint25_linear_1_3" x1="707.046" y1="77.2485" x2="437.151" y2="434.059" gradientUnits="userSpaceOnUse">
<stop offset="0.0036" stop-color="#E38DDD"/>
<stop offset="1" stop-color="#9571F6"/>
</linearGradient>
<linearGradient id="paint26_linear_1_3" x1="646.37" y1="294.056" x2="478.748" y2="515.659" gradientUnits="userSpaceOnUse">
<stop offset="0.0036" stop-color="#E38DDD"/>
<stop offset="1" stop-color="#9571F6"/>
</linearGradient>
<linearGradient id="paint27_linear_1_3" x1="145.216" y1="723.814" x2="347.371" y2="723.814" gradientUnits="userSpaceOnUse">
<stop stop-color="#FFC444"/>
<stop offset="0.9964" stop-color="#F36F56"/>
</linearGradient>
<linearGradient id="paint28_linear_1_3" x1="224.429" y1="704.163" x2="165.03" y2="863.603" gradientUnits="userSpaceOnUse">
<stop stop-color="#AA80F9"/>
<stop offset="0.9964" stop-color="#6165D7"/>
</linearGradient>
<linearGradient id="paint29_linear_1_3" x1="186.764" y1="787.243" x2="373.26" y2="794.186" gradientUnits="userSpaceOnUse">
<stop stop-color="#444B8C"/>
<stop offset="0.9964" stop-color="#26264F"/>
</linearGradient>
<linearGradient id="paint30_linear_1_3" x1="265.934" y1="834.952" x2="294.36" y2="764.394" gradientUnits="userSpaceOnUse">
<stop stop-color="#444B8C"/>
<stop offset="0.9964" stop-color="#26264F"/>
</linearGradient>
<linearGradient id="paint31_linear_1_3" x1="238.867" y1="733.959" x2="335.929" y2="593.136" gradientUnits="userSpaceOnUse">
<stop stop-color="#FF9085"/>
<stop offset="1" stop-color="#FB6FBB"/>
</linearGradient>
<linearGradient id="paint32_linear_1_3" x1="279.32" y1="635.983" x2="105.035" y2="1058.88" gradientUnits="userSpaceOnUse">
<stop stop-color="#FFC444"/>
<stop offset="0.9964" stop-color="#F36F56"/>
</linearGradient>
<linearGradient id="paint33_linear_1_3" x1="243.338" y1="733.105" x2="322.523" y2="897.871" gradientUnits="userSpaceOnUse">
<stop offset="0.0036" stop-color="#E38DDD"/>
<stop offset="1" stop-color="#9571F6"/>
</linearGradient>
<linearGradient id="paint34_linear_1_3" x1="275.759" y1="678.691" x2="366.907" y2="868.349" gradientUnits="userSpaceOnUse">
<stop offset="0.0036" stop-color="#E38DDD"/>
<stop offset="1" stop-color="#9571F6"/>
</linearGradient>
<linearGradient id="paint35_linear_1_3" x1="251.906" y1="777.062" x2="314.993" y2="908.333" gradientUnits="userSpaceOnUse">
<stop offset="0.0036" stop-color="#E38DDD"/>
<stop offset="1" stop-color="#9571F6"/>
</linearGradient>
<linearGradient id="paint36_linear_1_3" x1="270.296" y1="855.15" x2="312.363" y2="942.683" gradientUnits="userSpaceOnUse">
<stop offset="0.0036" stop-color="#E38DDD"/>
<stop offset="1" stop-color="#9571F6"/>
</linearGradient>
</defs>
</svg>
